<svg xmlns="http://www.w3.org/2000/svg" viewBox="0 0 400 400">
<rect width="400" height="400" fill="#F4E6D9"/>
<ellipse cx="200" cy="332" rx="145" ry="14" fill="#1B1A17" opacity="0.12"/>
<!-- powder -->
<path d="M120 330 C140 295 175 285 205 300 C235 285 275 295 295 330 Z" fill="#8A5A2B"/>
<path d="M205 300 C235 285 275 295 295 330 L250 330 C245 312 230 303 205 300 Z" fill="#6E4521"/>
<path d="M140 318 C155 300 175 296 190 302" fill="none" stroke="#B98350" stroke-width="4" stroke-linecap="round"/>
<!-- sticks -->
<g transform="rotate(-16 200 200)">
<!-- bottom-left -->
<rect x="70" y="212" width="250" height="40" rx="20" fill="#A8703C"/>
<rect x="76" y="217" width="238" height="11" rx="5.5" fill="#C99660"/>
<rect x="76" y="238" width="238" height="9" rx="4.5" fill="#7A4A22" opacity="0.7"/>
<!-- bottom-right -->
<rect x="80" y="170" width="250" height="40" rx="20" fill="#B98350"/>
<rect x="86" y="175" width="238" height="11" rx="5.5" fill="#D9AE7C"/>
<rect x="86" y="196" width="238" height="9" rx="4.5" fill="#8A5A2B" opacity="0.7"/>
<!-- top -->
<rect x="72" y="130" width="250" height="40" rx="20" fill="#9E6732"/>
<rect x="78" y="135" width="238" height="11" rx="5.5" fill="#C58E58"/>
<rect x="78" y="156" width="238" height="9" rx="4.5" fill="#6E4521" opacity="0.7"/>
<!-- end curls -->
<ellipse cx="318" cy="232" rx="13" ry="19" fill="#6E4521"/>
<path d="M318 220 C310 224 310 238 318 240 C324 240 326 232 321 230" fill="none" stroke="#D9AE7C" stroke-width="3" stroke-linecap="round"/>
<ellipse cx="327" cy="190" rx="13" ry="19" fill="#7A4A22"/>
<path d="M327 178 C319 182 319 196 327 198 C333 198 335 190 330 188" fill="none" stroke="#E0BC8E" stroke-width="3" stroke-linecap="round"/>
<ellipse cx="80" cy="150" rx="13" ry="19" fill="#5A3A1E"/>
<path d="M80 138 C72 142 72 156 80 158 C86 158 88 150 83 148" fill="none" stroke="#D9AE7C" stroke-width="3" stroke-linecap="round"/>
<!-- twine -->
<rect x="180" y="124" width="14" height="136" rx="5" fill="#E8D5A0"/>
<rect x="188" y="124" width="4" height="136" fill="#C9B070"/>
<rect x="212" y="124" width="14" height="136" rx="5" fill="#E8D5A0" opacity="0"/>
<path d="M187 192 C170 165 150 160 148 180 C148 195 170 198 187 192 Z" fill="#E8D5A0"/>
<path d="M187 192 C205 165 228 162 230 182 C228 198 205 198 187 192 Z" fill="#E8D5A0"/>
<path d="M187 192 C178 178 160 172 155 182 C170 190 180 192 187 192 Z" fill="#C9B070"/>
<circle cx="187" cy="192" r="8" fill="#D8C48A"/>
</g>
</svg>
