<svg xmlns="http://www.w3.org/2000/svg" viewBox="0 0 400 400">
<rect width="400" height="400" fill="#EBE5F0"/>
<ellipse cx="200" cy="330" rx="150" ry="16" fill="#1B1A17" opacity="0.12"/>
<defs>
<path id="pl" d="M0 -1 C0.65 -1 1 -0.45 1 0.1 C1 0.7 0.55 1 0 1 C-0.55 1 -1 0.7 -1 0.1 C-1 -0.45 -0.65 -1 0 -1 Z"/>
</defs>
<!-- plum back left -->
<g transform="translate(135 195) scale(70)"><use href="#pl" fill="#4A3A82"/></g>
<path d="M95 175 C100 148 125 135 150 140 C125 150 112 168 108 195 Z" fill="#8A7BB5" opacity="0.7"/>
<path d="M150 268 C185 262 205 225 200 190 C215 230 190 275 150 268 Z" fill="#2F2260" opacity="0.7"/>
<path d="M137 130 C132 160 140 215 140 262" fill="none" stroke="#6A5AA0" stroke-width="3" stroke-linecap="round" opacity="0.7"/>
<path d="M137 128 C136 116 138 108 142 100" fill="none" stroke="#5A3A1E" stroke-width="6" stroke-linecap="round"/>
<!-- plum back right -->
<g transform="translate(250 175) scale(62)"><use href="#pl" fill="#5A458F"/></g>
<path d="M210 155 C215 135 235 125 255 128 C238 138 228 150 224 172 Z" fill="#9A8AC3" opacity="0.7"/>
<path d="M255 232 C285 226 305 195 300 165 C312 200 292 238 255 232 Z" fill="#3A2A70" opacity="0.7"/>
<path d="M252 114 C250 104 252 96 256 90" fill="none" stroke="#5A3A1E" stroke-width="6" stroke-linecap="round"/>
<path d="M256 96 C275 74 305 76 318 88 C305 112 275 114 256 96 Z" fill="#2F6B50"/>
<path d="M260 96 C278 90 298 88 314 88" fill="none" stroke="#7FB899" stroke-width="3" stroke-linecap="round"/>
<!-- halved plum front -->
<g transform="translate(205 262) scale(54)"><use href="#pl" fill="#4A3A82"/></g>
<g transform="translate(205 264) scale(47)"><use href="#pl" fill="#F0B93A"/></g>
<g transform="translate(205 266) scale(36)"><use href="#pl" fill="#F7D98B"/></g>
<ellipse cx="205" cy="268" rx="17" ry="24" fill="#8A5A2B"/>
<ellipse cx="200" cy="262" rx="5" ry="11" fill="#B98350" transform="rotate(8 200 262)"/>
<path d="M175 245 C180 232 195 226 208 228 C195 236 188 246 186 262 Z" fill="#FFF8EC" opacity="0.5"/>
</svg>
